<?xml version="1.0" encoding="UTF-8"?>
<svg id="a" data-name="Layer 1" xmlns="http://www.w3.org/2000/svg" xmlns:xlink="http://www.w3.org/1999/xlink" viewBox="0 0 1024 1024">
  <defs>
    <linearGradient id="b" x1="359.98" y1="286.78" x2="630.41" y2="286.78" gradientTransform="translate(845.78 -82.74) rotate(75.15)" gradientUnits="userSpaceOnUse">
      <stop offset="0" stop-color="#ff82dc"/>
      <stop offset="1" stop-color="#a7003a"/>
    </linearGradient>
    <linearGradient id="c" x1="417.72" y1="317.02" x2="666.37" y2="317.02" gradientTransform="translate(745.96 -142.94) rotate(67.58)" gradientUnits="userSpaceOnUse">
      <stop offset="0" stop-color="#d09dfe"/>
      <stop offset="1" stop-color="#e0518e"/>
      <stop offset="1" stop-color="#e0518e"/>
    </linearGradient>
    <linearGradient id="d" x1="455.65" y1="340.44" x2="681" y2="340.44" gradientTransform="translate(646.14 -203.15) rotate(60)" gradientUnits="userSpaceOnUse">
      <stop offset="0" stop-color="#ff8ffd"/>
      <stop offset="1" stop-color="#ff0f1c"/>
    </linearGradient>
    <linearGradient id="e" x1="334.21" y1="233.67" x2="604.63" y2="233.67" gradientTransform="translate(1140.68 487.95) rotate(135.15)" xlink:href="#b"/>
    <linearGradient id="f" x1="399.01" y1="260.48" x2="647.66" y2="260.48" gradientTransform="translate(1142.91 371.4) rotate(127.58)" xlink:href="#c"/>
    <linearGradient id="g" x1="444.65" y1="282.44" x2="670" y2="282.44" gradientTransform="translate(1145.14 254.85) rotate(120)" xlink:href="#d"/>
    <linearGradient id="h" x1="275.33" y1="229.44" x2="545.75" y2="229.44" gradientTransform="translate(793.9 1028.69) rotate(-164.85)" xlink:href="#b"/>
    <linearGradient id="i" x1="340.69" y1="248.42" x2="589.34" y2="248.42" gradientTransform="translate(895.95 972.35) rotate(-172.42)" xlink:href="#c"/>
    <linearGradient id="j" x1="388.92" y1="262.97" x2="614.27" y2="262.97" gradientTransform="translate(998 916) rotate(-180)" xlink:href="#d"/>
    <linearGradient id="k" x1="242.22" y1="278.32" x2="512.64" y2="278.32" gradientTransform="translate(152.22 998.74) rotate(-104.85)" xlink:href="#b"/>
    <linearGradient id="l" x1="301.09" y1="292.9" x2="549.73" y2="292.9" gradientTransform="translate(252.04 1058.94) rotate(-112.42)" xlink:href="#c"/>
    <linearGradient id="m" x1="344.19" y1="301.49" x2="569.54" y2="301.49" gradientTransform="translate(351.86 1119.15) rotate(-120)" xlink:href="#d"/>
    <linearGradient id="n" x1="268" y1="331.43" x2="538.42" y2="331.43" gradientTransform="translate(-142.68 428.05) rotate(-44.85)" xlink:href="#b"/>
    <linearGradient id="o" x1="319.8" y1="349.43" x2="568.45" y2="349.43" gradientTransform="translate(-144.91 544.6) rotate(-52.42)" xlink:href="#c"/>
    <linearGradient id="p" x1="355.19" y1="359.49" x2="580.54" y2="359.49" gradientTransform="translate(-147.14 661.15) rotate(-60)" xlink:href="#d"/>
    <linearGradient id="q" x1="326.88" y1="335.66" x2="597.3" y2="335.66" gradientTransform="translate(204.1 -112.69) rotate(15.15)" xlink:href="#b"/>
    <linearGradient id="r" x1="378.12" y1="361.5" x2="626.77" y2="361.5" gradientTransform="translate(102.05 -56.35) rotate(7.58)" xlink:href="#c"/>
    <linearGradient id="s" x1="410.92" y1="378.97" x2="636.27" y2="378.97" gradientTransform="matrix(1, 0, 0, 1, 0, 0)" xlink:href="#d"/>
  </defs>
  <g>
    <g>
      <path d="m616.29,444.98c1.61,10.75-5.69,30.06-43.14,57.37,20.88-5.54,38.97-32.04,49.73-18.5,10.03,12.71,9.69,26.88,3.65,39.06-1.51,3.05-3.36,5.78-5.61,3.74-7.65-9.52-16.44-19.48-29.9-20.01,15.29,11.31,20.17,33.58,10.32,50.53-1.68,2.67-3.52,4.99-4.42,5.14-3.69-.94-8.02-1.84-9.68-.37-6.56,7.12-13.66,12.79-21.22,16.78-2.48,1.31-5.01,2.43-6.29,2.63-2.89.11-5.68.36-8.38.69,4.87-5.73,8.39-11.78,10.69-18.54-7.54,10.19-18.95,18.34-31.34,22.02-3.1.92-6.2,1.54-6.09.49,9.02-9.86,17.97-22.48,15.38-36.13-1.04,11.54-8.58,21.74-18.09,28.36-18.32,12.03-44.05,7.98-58.16-7.44-1.93-2.17-3.63-4.58,3.5-4.86,10.29-.52,22.28-1.65,29.12-10.63-11.68,6.17-24.38,8.51-37.89,3.9-18.11-6.47-30.58-22.62-31.62-42.32-.42-6.42-.86-8.5-1.25-10.75-10.92-50.77,9.23-112.54,61.03-120.87,39.3-6.32,98.95-17.02,98.95-17.02l78.04-18.64,82.8-4.54-24.09,28.92,133.82,2.43-23.93,6.34s134.02,97.12,155.8,125.15c-82.11-31.5-171.69-26.69-191.54-20.41-27.03,8.56-75.97,45.75-71.38,47.61s79.68-14.98,27.23.98c-52.45,15.95-123.48,88.06-123.48,88.06,0,0,97.44-35.05,31.2-8.27-66.24,26.78-175.59,39.38-175.59,39.38,0,0,84.09-26.01,123.71-66.6,58-59.43,59.63-97.7,44.57-125.53-1.93-3.56-4.29-6.75-6.96-9.61s-42.6-55.61-68.07-39.64c-11.7,7.37-27.53,34.57-9.38,14.02,5.73-6.48,17.5-18.29,33.71-3.97,6.36,5.62,12.66,10.3,14.27,21.05Z" style="fill: url(#b);"/>
      <path d="m596.1,457.99c2.62,9.52-1.86,27.74-32.67,56.46,18.23-7.27,31.67-33.15,42.85-22.1,10.43,10.37,11.67,23.2,7.55,34.84-1.03,2.91-2.4,5.58-4.66,3.98-7.94-7.75-16.96-15.79-29.16-14.8,15.03,8.54,22.16,28.23,14.82,44.46-1.18,2.61-2.63,4.88-3.43,5.12-3.43-.45-7.52-.85-8.78.72-5.51,6.86-10.93,13.03-17.32,17.45-2.1,1.45-4.24,2.81-5.38,3.06-2.57.57-5.08.94-7.49,1.53,3.77-5.7,6.28-11.54,7.63-17.89-5.69,10.02-15.1,18.61-25.87,23.28-2.69,1.17-5.43,2.07-5.44,1.1,7.07-9.88,13.77-22.24,9.94-34.27.32,10.53-5.28,20.65-13.23,27.55-15.05,13.05-38.95,12.09-53.28-.38-1.99-1.74-3.77-3.7,2.63-4.77,9.23-1.54,19.92-3.91,25.11-12.76-9.87,6.84-21.09,10.42-33.76,7.65-17.07-3.74-29.95-17.1-33.14-34.73-1.04-5.76-1.66-7.59-2.3-9.56-14.54-44.89-3.93-102.53,41.9-115.69,34.77-9.98,87.42-26.13,87.42-26.13l68.37-25.32,74.21-13.11-18.58,28.72,120.99-12.38-20.9,8.33s179.85,109.95,115.85,81.09c-64.01-28.86-119.47,9.47-136.69,17.3-23.45,10.67-63.56,49.55-59.21,50.72s70.26-22.19,24.67-2.09c-45.58,20.11-101.81,92.89-101.81,92.89,0,0,84.09-42.24,27.24-10.86-56.85,31.38-154.12,54.65-154.12,54.65,0,0,73.04-32.63,104.36-73.56,45.86-59.93,43.16-94.64,26.54-118.1-2.13-3-4.61-5.62-7.33-7.92-2.72-2.29-44.49-45.53-65.73-28.35-9.76,7.93-21.08,34.19-6.94,13.67,4.46-6.47,13.79-18.41,29.98-7.25,6.35,4.38,12.55,7.91,15.17,17.43Z" style="fill: url(#c);"/>
      <path d="m573.84,452.58c3.63,8.29,1.97,25.42-22.2,55.54,15.59-9,24.37-34.26,35.97-25.71,10.83,8.04,13.65,19.51,11.44,30.63-.55,2.78-1.44,5.38-3.7,4.23-8.23-5.99-17.47-12.09-28.41-9.58,14.76,5.77,23.54,22.62,19.31,38.4-.77,2.51-1.75,4.78-2.44,5.09-3.17.05-6.85.27-7.87,1.81-3.73,7.16-8.2,13.26-13.41,18.12-1.71,1.59-3.5,3.05-4.48,3.49-2.3.72-4.49,1.53-6.59,2.38,2.67-5.67,4.18-11.3,4.56-17.24-3.85,9.84-11.25,18.88-20.41,24.54-2.29,1.41-4.65,2.59-4.79,1.72,5.11-9.9,9.56-21.99,4.5-32.41,1.68,9.51-2.17,19.35-8.38,26.75-12.12,13.67-33.69,16.01-48.4,6.68-2.03-1.33-3.92-2.89,1.76-4.67,8.16-2.66,17.56-6.18,21.1-14.89-8.05,7.51-17.75,12.16-29.63,11.39-15.97-1.26-29.53-11.54-34.65-27.15-1.73-5.08-2.54-6.65-3.35-8.37-19.84-38.46-17.09-92.53,22.77-110.52,30.23-13.64,75.89-35.24,75.89-35.24l58.71-31.99,65.61-21.68-13.08,28.51,108.17-27.2-17.87,10.31s100.35,33.53,123.97,51.34c-72.91-7.45-115.31,31.32-129.91,40.7-19.88,12.77-51.14,53.35-47.05,53.84s60.83-29.4,22.12-5.15c-38.71,24.26-80.15,97.72-80.15,97.72,0,0,70.74-49.42,23.29-13.45-47.45,35.97-132.66,69.92-132.66,69.92,0,0,61.98-39.24,85-80.52,33.71-60.43,26.69-91.58,8.51-110.68-2.32-2.44-4.92-4.5-7.69-6.22s-46.38-35.45-63.39-17.06c-7.81,8.48-14.62,33.81-4.49,13.32,3.2-6.46,10.09-18.53,26.25-10.54,6.34,3.13,12.43,5.53,16.06,13.82Z" style="fill: url(#d);"/>
    </g>
    <circle cx="510" cy="516" r="18" style="fill: #e3dcff;"/>
  </g>
  <g>
    <g>
      <path d="m624.65,572.53c-8.5,6.77-28.88,10.11-71.25-8.67,15.23,15.31,47.23,17.73,40.88,33.82-5.99,15.04-18.44,21.83-32,22.69-3.39.22-6.68-.02-6.04-2.99,4.42-11.39,8.65-23.98,2.38-35.9-2.15,18.9-19,34.26-38.6,34.21-3.15-.13-6.08-.56-6.66-1.26-1.03-3.66-2.42-7.87-4.52-8.57-9.45-2.13-17.91-5.43-25.14-9.99-2.37-1.49-4.61-3.13-5.42-4.13-1.55-2.45-3.15-4.74-4.79-6.92,7.39,1.35,14.39,1.37,21.4,0-12.6-1.43-25.36-7.24-34.74-16.13-2.34-2.22-4.44-4.6-3.47-5.03,13.05,2.88,28.45,4.33,38.98-4.75-10.52,4.87-23.11,3.44-33.6-1.49-19.58-9.85-28.93-34.16-22.64-54.09.91-2.76,2.15-5.43,5.96.6,5.59,8.65,12.57,18.47,23.77,19.9-11.18-7.03-19.56-16.86-22.32-30.87-3.45-18.91,4.3-37.8,20.83-48.55,5.35-3.57,6.93-4.99,8.68-6.46,38.51-34.84,102.07-48.28,135.19-7.58,25.12,30.87,64.21,77.19,64.21,77.19l55.16,58.26,45.33,69.44-37.09-6.4,64.81,117.1-17.46-17.55s-17.1,164.63-30.49,197.5c-13.77-86.86-62.73-162.04-78.1-176.08-20.93-19.13-77.61-42.92-76.92-38.01s52.81,61.52,12.77,24.07c-40.04-37.45-138-62.91-138-62.91,0,0,79.08,66.86,22.76,22.88-56.31-43.98-121.9-132.37-121.9-132.37,0,0,64.58,59.82,119.54,73.83,80.47,20.52,114.43,2.79,131-24.16,2.12-3.45,3.7-7.09,4.85-10.84s26.86-64.7.29-78.77c-12.24-6.45-43.71-6.56-16.84-1.11,8.48,1.72,24.59,6,20.29,27.21-1.69,8.32-2.59,16.12-11.09,22.88Z" style="fill: url(#e);"/>
      <path d="m603.29,561.56c-6.93,7.03-24.95,12.26-65.23-.07,15.41,12.16,44.54,10.85,40.57,26.06-3.77,14.22-14.26,21.7-26.4,23.96-3.04.56-6.03.71-5.78-2.04,2.74-10.76,5.19-22.58-1.76-32.65.12,17.28-13.37,33.3-31.1,35.06-2.85.28-5.55.16-6.14-.41-1.33-3.19-3.02-6.94-5.01-7.24-8.7-1.34-16.75-2.95-23.77-6.27-2.3-1.09-4.55-2.27-5.34-3.13-1.78-1.94-3.36-3.93-5.07-5.72,6.82.42,13.14-.33,19.31-2.34-11.52.08-23.67-3.77-33.1-10.77-2.36-1.75-4.5-3.67-3.68-4.16,12.09,1.18,26.14.8,34.65-8.53-8.96,5.54-20.52,5.76-30.48,2.32-18.83-6.5-29.95-27.69-26.31-46.33.51-2.59,1.32-5.11,5.44-.11,5.95,7.22,13.35,15.29,23.61,15.36-10.86-5.13-19.57-13.05-23.5-25.42-5.29-16.65-.17-34.49,13.51-46.07,4.46-3.78,5.74-5.23,7.13-6.77,31.61-35.04,86.83-54.67,121.14-21.56,26.03,25.12,66.34,62.65,66.34,62.65l56.11,46.55,48.46,57.71-34.16-1.73,71.22,98.59-17.66-13.93s-5.3,210.73-12.3,140.87c-7.01-69.86-67.94-98.73-83.33-109.72-20.97-14.98-74.69-30.27-73.54-25.92s54.35,49.75,14.14,20.33c-40.2-29.42-131.35-41.73-131.35-41.73,0,0,78.62,51.71,23.03,18.16-55.59-33.54-124.39-106.15-124.39-106.15,0,0,64.77,46.94,115.88,53.59,74.83,9.75,103.54-9.94,115.55-36.06,1.54-3.34,2.57-6.8,3.19-10.3s17.19-61.3-8.31-71.1c-11.74-4.49-40.15-1.16-15.31.83,7.84.63,22.84,2.74,21.27,22.34-.62,7.69-.58,14.82-7.51,21.85Z" style="fill: url(#f);"/>
      <path d="m596.84,539.58c-5.37,7.29-21.03,14.42-59.2,8.54,15.59,9,41.85,3.97,40.25,18.3-1.54,13.4-10.08,21.58-20.8,25.22-2.68.91-5.38,1.44-5.51-1.09,1.07-10.12,1.74-21.17-5.9-29.4,2.39,15.67-7.82,31.69-23.6,35.92-2.56.59-5.01.88-5.63.44-1.63-2.72-3.66-5.8-5.5-5.91-8.06.35-15.59-.47-22.4-2.56-2.24-.68-4.39-1.51-5.26-2.14-1.78-1.63-3.57-3.12-5.36-4.52,6.24-.52,11.88-2.03,17.21-4.67-10.45,1.59-21.98-.3-31.46-5.41-2.37-1.28-4.57-2.73-3.89-3.29,11.13-.52,23.83-2.72,30.32-12.31-7.4,6.21-17.84,7.8-27.35,6.12-17.9-3.66-30.71-21.17-29.99-38.58.13-2.42.54-4.84,4.93-.81,6.38,5.74,14.13,12.12,23.45,10.83-10.53-3.22-19.41-9.3-24.68-19.97-6.9-14.46-4.77-31.34,6.18-43.59,3.53-4.04,4.49-5.52,5.58-7.09,23.38-36.41,71.59-61.06,107.09-35.54,26.93,19.36,68.46,48.1,68.46,48.1l57.06,34.85,51.58,45.98-31.23,2.93,77.63,80.08-17.87-10.31s21.13,103.67,17.52,133.03c-30-66.87-84.78-84.2-100.2-92.15-21-10.83-71.77-17.62-70.15-13.82s55.88,37.98,15.52,16.58c-40.37-21.4-124.71-20.55-124.71-20.55,0,0,78.17,36.55,23.29,13.45-54.88-23.11-126.88-79.93-126.88-79.93,0,0,64.97,34.05,112.23,33.35,69.19-1.02,92.65-22.68,100.11-47.97.95-3.23,1.43-6.51,1.54-9.77.11-3.26,7.52-57.89-16.92-63.43-11.25-2.52-36.59,4.24-13.79,2.77,7.2-.46,21.09-.53,22.25,17.46.46,7.06,1.43,13.53-3.94,20.82Z" style="fill: url(#g);"/>
    </g>
    <circle cx="510" cy="516" r="18" style="fill: #e3dcff;"/>
  </g>
  <g>
    <g>
      <path d="m518.37,643.56c-10.11-3.98-23.19-19.95-28.12-66.04-5.65,20.85,8.26,49.77-8.84,52.31-16.02,2.33-28.13-5.05-35.66-16.37-1.88-2.83-3.32-5.8-.43-6.73,12.07-1.87,25.09-4.5,32.28-15.89-17.44,7.59-39.17.68-48.92-16.33-1.47-2.79-2.56-5.54-2.24-6.4,2.66-2.72,5.6-6.03,5.17-8.2-2.88-9.24-4.25-18.22-3.92-26.77.11-2.8.4-5.56.86-6.76,1.35-2.56,2.53-5.1,3.6-7.6,2.52,7.08,6.01,13.15,10.71,18.53-5.06-11.63-6.41-25.59-3.4-38.15.75-3.14,1.76-6.14,2.62-5.52,4.03,12.75,10.48,26.8,23.6,31.38-9.48-6.67-14.54-18.3-15.51-29.85-1.26-21.88,15.11-42.14,35.53-46.65,2.85-.59,5.78-.86,2.46,5.46-4.69,9.17-9.71,20.12-5.35,30.53.5-13.2,4.82-25.37,15.57-34.77,14.65-12.45,34.88-15.17,52.46-6.23,5.77,2.85,7.79,3.51,9.93,4.29,49.43,15.93,92.84,64.26,74.16,113.29-14.18,37.2-34.74,94.2-34.74,94.2l-22.87,76.9-37.47,73.97-13-35.32-69.01,114.68,6.47-23.89s-151.12,67.51-186.28,72.35c68.33-55.36,108.96-135.34,113.44-155.67,6.1-27.69-1.64-88.67-5.54-85.62s-26.87,76.5-14.46,23.1c12.41-53.4-14.52-150.97-14.52-150.97,0,0-18.36,101.91-8.44,31.15,9.93-70.76,53.69-171.75,53.69-171.75,0,0-19.52,85.83-4.17,140.44,22.46,79.94,54.79,100.49,86.42,101.37,4.05.11,7.99-.34,11.81-1.22s69.46-9.09,68.37-39.13c-.53-13.82-16.17-41.13-7.45-15.14,2.75,8.2,7.1,24.3-13.42,31.18-8.04,2.7-15.25,5.82-25.36,1.84Z" style="fill: url(#h);"/>
      <path d="m517.19,619.57c-9.56-2.49-23.1-15.48-32.56-56.52-2.82,19.42,12.87,44-2.28,48.16-14.2,3.85-25.92-1.49-33.95-10.89-2.01-2.35-3.63-4.87-1.12-6.02,10.69-3,22.15-6.79,27.39-17.85-14.91,8.74-35.53,5.07-45.92-9.4-1.67-2.33-2.91-4.72-2.72-5.53,2.1-2.75,4.5-6.08,3.77-7.96-3.19-8.2-5.82-15.98-6.45-23.72-.21-2.54-.31-5.08.04-6.19.79-2.51,1.72-4.87,2.42-7.25,3.05,6.11,6.85,11.21,11.68,15.55-5.83-9.94-8.57-22.39-7.23-34.05.34-2.92.92-5.73,1.76-5.26,5.02,11.06,12.37,23.04,24.71,25.74-9.28-4.99-15.25-14.9-17.25-25.24-3.78-19.56,9-39.78,26.97-45.95,2.5-.86,5.09-1.41,2.81,4.66-3.28,8.76-6.57,19.21-1.5,28.13-.99-11.96,1.51-23.47,10.26-33.06,11.77-12.91,29.78-17.39,46.65-11.33,5.51,1.98,7.4,2.35,9.43,2.79,46.15,9.85,90.76,47.86,79.24,94.13-8.74,35.1-21.08,88.77-21.08,88.77l-12.26,71.87-25.75,70.82-15.58-30.45-49.77,110.97,3.24-22.26s-185.15,100.78-128.15,59.78c57-41,51.53-108.2,53.36-127.03,2.49-25.65-11.13-79.82-14.32-76.64s-15.91,71.94-10.53,22.41c5.38-49.53-29.54-134.62-29.54-134.62,0,0-5.47,93.94-4.22,29.02,1.25-64.92,29.73-160.8,29.73-160.8,0,0-8.26,79.56,11.53,127.16,28.97,69.68,60.38,84.7,89.01,82.04,3.66-.34,7.18-1.18,10.52-2.39s61.68-15.76,57.42-42.75c-1.98-12.41-19.07-35.35-8.37-12.84,3.38,7.1,9.05,21.15-8.71,29.59-6.96,3.31-13.13,6.91-22.68,4.42Z" style="fill: url(#i);"/>
      <path d="m533,603c-9-1-23-11-37-47,0,18,17.48,38.23,4.28,44.01-12.38,5.36-23.72,2.06-32.25-5.4-2.13-1.87-3.94-3.94-1.81-5.32,9.3-4.13,19.2-9.08,22.51-19.81-12.38,9.9-31.36,9.08-42.91-2.48-1.79-1.93-3.27-3.9-3.19-4.66,1.54-2.77,3.19-6.07,2.37-7.72-4.33-6.81-7.39-13.73-8.98-20.68-.53-2.28-.89-4.56-.78-5.63.53-2.36.92-4.65,1.24-6.9,3.57,5.14,7.7,9.27,12.65,12.57-6.6-8.25-10.73-19.19-11.05-29.95-.08-2.69.08-5.32.91-5.01,6.02,9.38,14.27,19.28,25.82,20.1-9.08-3.3-15.68-11.55-18.98-20.63-5.78-17.33,2.98-37.18,18.42-45.26,2.16-1.09,4.46-1.95,3.17,3.86-1.78,8.4-3.43,18.3,2.35,25.72-2.48-10.73-1.65-21.45,4.95-31.36,9.08-13.2,24.75-19.8,40.84-16.44,5.26,1.04,7.03,1.12,8.92,1.29,43.23,2.05,88.68,31.47,84.33,74.98-3.3,33.01-7.43,83.34-7.43,83.34l-1.65,66.84-14.03,67.66-18.15-25.58-30.53,107.27v-20.63s-79.22,70.14-106.45,81.69c42.91-59.41,30.53-115.52,29.71-132.85-1.12-23.6-20.63-70.96-23.1-67.66s-4.95,67.38-6.6,21.73c-1.65-45.66-44.56-118.27-44.56-118.27,0,0,7.43,85.97,0,26.9-7.43-59.08,5.78-149.85,5.78-149.85,0,0,3,73.29,27.23,113.87,35.48,59.41,65.96,68.9,91.59,62.71,3.28-.79,6.36-2.02,9.23-3.55s53.89-22.44,46.47-46.37c-3.44-11-21.97-29.56-9.29-10.55,4,6,11,18-4,28-5.88,3.92-11,8-20,7Z" style="fill: url(#j);"/>
    </g>
    <circle cx="510" cy="516" r="18" style="fill: #e3dcff;"/>
  </g>
  <g>
    <g>
      <path d="m403.71,587.02c-1.61-10.75,5.69-30.06,43.14-57.37-20.88,5.54-38.97,32.04-49.73,18.5-10.03-12.71-9.69-26.88-3.65-39.06,1.51-3.05,3.36-5.78,5.61-3.74,7.65,9.52,16.44,19.48,29.9,20.01-15.29-11.31-20.17-33.58-10.32-50.53,1.68-2.67,3.52-4.99,4.42-5.14,3.69.94,8.02,1.84,9.68.37,6.56-7.12,13.66-12.79,21.22-16.78,2.48-1.31,5.01-2.43,6.29-2.63,2.89-.11,5.68-.36,8.38-.69-4.87,5.73-8.39,11.78-10.69,18.54,7.54-10.19,18.95-18.34,31.34-22.02,3.1-.92,6.2-1.54,6.09-.49-9.02,9.86-17.97,22.48-15.38,36.13,1.04-11.54,8.58-21.74,18.09-28.36,18.32-12.03,44.05-7.98,58.16,7.44,1.93,2.17,3.63,4.58-3.5,4.86-10.29.52-22.28,1.65-29.12,10.63,11.68-6.17,24.38-8.51,37.89-3.9,18.11,6.47,30.58,22.62,31.62,42.32.42,6.42.86,8.5,1.25,10.75,10.92,50.77-9.23,112.54-61.03,120.87-39.3,6.32-98.95,17.02-98.95,17.02l-78.04,18.64-82.8,4.54,24.09-28.92-133.82-2.43,23.93-6.34s-134.02-97.12-155.8-125.15c82.11,31.5,171.69,26.69,191.54,20.41,27.03-8.56,75.97-45.75,71.38-47.61s-79.68,14.98-27.23-.98c52.45-15.95,123.48-88.06,123.48-88.06,0,0-97.44,35.05-31.2,8.27,66.24-26.78,175.59-39.38,175.59-39.38,0,0-84.09,26.01-123.71,66.6-58,59.43-59.63,97.7-44.57,125.53,1.93,3.56,4.29,6.75,6.96,9.61s42.6,55.61,68.07,39.64c11.7-7.37,27.53-34.57,9.38-14.02-5.73,6.48-17.5,18.29-33.71,3.97-6.36-5.62-12.66-10.3-14.27-21.05Z" style="fill: url(#k);"/>
      <path d="m423.9,574.01c-2.62-9.52,1.86-27.74,32.67-56.46-18.23,7.27-31.67,33.15-42.85,22.1-10.43-10.37-11.67-23.2-7.55-34.84,1.03-2.91,2.4-5.58,4.66-3.98,7.94,7.75,16.96,15.79,29.16,14.8-15.03-8.54-22.16-28.23-14.82-44.46,1.18-2.61,2.63-4.88,3.43-5.12,3.43.45,7.52.85,8.78-.72,5.51-6.86,10.93-13.03,17.32-17.45,2.1-1.45,4.24-2.81,5.38-3.06,2.57-.57,5.08-.94,7.49-1.53-3.77,5.7-6.28,11.54-7.63,17.89,5.69-10.02,15.1-18.61,25.87-23.28,2.69-1.17,5.43-2.07,5.44-1.1-7.07,9.88-13.77,22.24-9.94,34.27-.32-10.53,5.28-20.65,13.23-27.55,15.05-13.05,38.95-12.09,53.28.38,1.99,1.74,3.77,3.7-2.63,4.77-9.23,1.54-19.92,3.91-25.11,12.76,9.87-6.84,21.09-10.42,33.76-7.65,17.07,3.74,29.95,17.1,33.14,34.73,1.04,5.76,1.66,7.59,2.3,9.56,14.54,44.89,3.93,102.53-41.9,115.69-34.77,9.98-87.42,26.13-87.42,26.13l-68.37,25.32-74.21,13.11,18.58-28.72-120.99,12.38,20.9-8.33s-179.85-109.95-115.85-81.09,119.47-9.47,136.69-17.3c23.45-10.67,63.56-49.55,59.21-50.72s-70.26,22.19-24.67,2.09c45.58-20.11,101.81-92.89,101.81-92.89,0,0-84.09,42.24-27.24,10.86,56.85-31.38,154.12-54.65,154.12-54.65,0,0-73.04,32.63-104.36,73.56-45.86,59.93-43.16,94.64-26.54,118.1,2.13,3,4.61,5.62,7.33,7.92s44.49,45.53,65.73,28.35c9.76-7.93,21.08-34.19,6.94-13.67-4.46,6.47-13.79,18.41-29.98,7.25-6.35-4.38-12.55-7.91-15.17-17.43Z" style="fill: url(#l);"/>
      <path d="m446.16,579.42c-3.63-8.29-1.97-25.42,22.2-55.54-15.59,9-24.37,34.26-35.97,25.71-10.83-8.04-13.65-19.51-11.44-30.63.55-2.78,1.44-5.38,3.7-4.23,8.23,5.99,17.47,12.09,28.41,9.58-14.76-5.77-23.54-22.62-19.31-38.4.77-2.51,1.75-4.78,2.44-5.09,3.17-.05,6.85-.27,7.87-1.81,3.73-7.16,8.2-13.26,13.41-18.12,1.71-1.59,3.5-3.05,4.48-3.49,2.3-.72,4.49-1.53,6.59-2.38-2.67,5.67-4.18,11.3-4.56,17.24,3.85-9.84,11.25-18.88,20.41-24.54,2.29-1.41,4.65-2.59,4.79-1.72-5.11,9.9-9.56,21.99-4.5,32.41-1.68-9.51,2.17-19.35,8.38-26.75,12.12-13.67,33.69-16.01,48.4-6.68,2.03,1.33,3.92,2.89-1.76,4.67-8.16,2.66-17.56,6.18-21.1,14.89,8.05-7.51,17.75-12.16,29.63-11.39,15.97,1.26,29.53,11.54,34.65,27.15,1.73,5.08,2.54,6.65,3.35,8.37,19.84,38.46,17.09,92.53-22.77,110.52-30.23,13.64-75.89,35.24-75.89,35.24l-58.71,31.99-65.61,21.68,13.08-28.51-108.17,27.2,17.87-10.31s-100.35-33.53-123.97-51.34c72.91,7.45,115.31-31.32,129.91-40.7,19.88-12.77,51.14-53.35,47.05-53.84s-60.83,29.4-22.12,5.15c38.71-24.26,80.15-97.72,80.15-97.72,0,0-70.74,49.42-23.29,13.45,47.45-35.97,132.66-69.92,132.66-69.92,0,0-61.98,39.24-85,80.52-33.71,60.43-26.69,91.58-8.51,110.68,2.32,2.44,4.92,4.5,7.69,6.22s46.38,35.45,63.39,17.06c7.81-8.48,14.62-33.81,4.49-13.32-3.2,6.46-10.09,18.53-26.25,10.54-6.34-3.13-12.43-5.53-16.06-13.82Z" style="fill: url(#m);"/>
    </g>
    <circle cx="510" cy="516" r="18" style="fill: #e3dcff;"/>
  </g>
  <g>
    <g>
      <path d="m395.35,459.47c8.5-6.77,28.88-10.11,71.25,8.67-15.23-15.31-47.23-17.73-40.88-33.82,5.99-15.04,18.44-21.83,32-22.69,3.39-.22,6.68.02,6.04,2.99-4.42,11.39-8.65,23.98-2.38,35.9,2.15-18.9,19-34.26,38.6-34.21,3.15.13,6.08.56,6.66,1.26,1.03,3.66,2.42,7.87,4.52,8.57,9.45,2.13,17.91,5.43,25.14,9.99,2.37,1.49,4.61,3.13,5.42,4.13,1.55,2.45,3.15,4.74,4.79,6.92-7.39-1.35-14.39-1.37-21.4,0,12.6,1.43,25.36,7.24,34.74,16.13,2.34,2.22,4.44,4.6,3.47,5.03-13.05-2.88-28.45-4.33-38.98,4.75,10.52-4.87,23.11-3.44,33.6,1.49,19.58,9.85,28.93,34.16,22.64,54.09-.91,2.76-2.15,5.43-5.96-.6-5.59-8.65-12.57-18.47-23.77-19.9,11.18,7.03,19.56,16.86,22.32,30.87,3.45,18.91-4.3,37.8-20.83,48.55-5.35,3.57-6.93,4.99-8.68,6.46-38.51,34.84-102.07,48.28-135.19,7.58-25.12-30.87-64.21-77.19-64.21-77.19l-55.16-58.26-45.33-69.44,37.09,6.4-64.81-117.1,17.46,17.55s17.1-164.63,30.49-197.5c13.77,86.86,62.73,162.04,78.1,176.08,20.93,19.13,77.61,42.92,76.92,38.01s-52.81-61.52-12.77-24.07c40.04,37.45,138,62.91,138,62.91,0,0-79.08-66.86-22.76-22.88,56.31,43.98,121.9,132.37,121.9,132.37,0,0-64.58-59.82-119.54-73.83-80.47-20.52-114.43-2.79-131,24.16-2.12,3.45-3.7,7.09-4.85,10.84s-26.86,64.7-.29,78.77c12.24,6.45,43.71,6.56,16.84,1.11-8.48-1.72-24.59-6-20.29-27.21,1.69-8.32,2.59-16.12,11.09-22.88Z" style="fill: url(#n);"/>
      <path d="m416.71,470.44c6.93-7.03,24.95-12.26,65.23.07-15.41-12.16-44.54-10.85-40.57-26.06,3.77-14.22,14.26-21.7,26.4-23.96,3.04-.56,6.03-.71,5.78,2.04-2.74,10.76-5.19,22.58,1.76,32.65-.12-17.28,13.37-33.3,31.1-35.06,2.85-.28,5.55-.16,6.14.41,1.33,3.19,3.02,6.94,5.01,7.24,8.7,1.34,16.75,2.95,23.77,6.27,2.3,1.09,4.55,2.27,5.34,3.13,1.78,1.94,3.36,3.93,5.07,5.72-6.82-.42-13.14.33-19.31,2.34,11.52-.08,23.67,3.77,33.1,10.77,2.36,1.75,4.5,3.67,3.68,4.16-12.09-1.18-26.14-.8-34.65,8.53,8.96-5.54,20.52-5.76,30.48-2.32,18.83,6.5,29.95,27.69,26.31,46.33-.51,2.59-1.32,5.11-5.44.11-5.95-7.22-13.35-15.29-23.61-15.36,10.86,5.13,19.57,13.05,23.5,25.42,5.29,16.65.17,34.49-13.51,46.07-4.46,3.78-5.74,5.23-7.13,6.77-31.61,35.04-86.83,54.67-121.14,21.56-26.03-25.12-66.34-62.65-66.34-62.65l-56.11-46.55-48.46-57.71,34.16,1.73-71.22-98.59,17.66,13.93s5.3-210.73,12.3-140.87c7.01,69.86,67.94,98.73,83.33,109.72,20.97,14.98,74.69,30.27,73.54,25.92s-54.35-49.75-14.14-20.33c40.2,29.42,131.35,41.73,131.35,41.73,0,0-78.62-51.71-23.03-18.16,55.59,33.54,124.39,106.15,124.39,106.15,0,0-64.77-46.94-115.88-53.59-74.83-9.75-103.54,9.94-115.55,36.06-1.54,3.34-2.57,6.8-3.19,10.3s-17.19,61.3,8.31,71.1c11.74,4.49,40.15,1.16,15.31-.83-7.84-.63-22.84-2.74-21.27-22.34.62-7.69.58-14.82,7.51-21.85Z" style="fill: url(#o);"/>
      <path d="m423.16,492.42c5.37-7.29,21.03-14.42,59.2-8.54-15.59-9-41.85-3.97-40.25-18.3,1.54-13.4,10.08-21.58,20.8-25.22,2.68-.91,5.38-1.44,5.51,1.09-1.07,10.12-1.74,21.17,5.9,29.4-2.39-15.67,7.82-31.69,23.6-35.92,2.56-.59,5.01-.88,5.63-.44,1.63,2.72,3.66,5.8,5.5,5.91,8.06-.35,15.59.47,22.4,2.56,2.24.68,4.39,1.51,5.26,2.14,1.78,1.63,3.57,3.12,5.36,4.52-6.24.52-11.88,2.03-17.21,4.67,10.45-1.59,21.98.3,31.46,5.41,2.37,1.28,4.57,2.73,3.89,3.29-11.13.52-23.83,2.72-30.32,12.31,7.4-6.21,17.84-7.8,27.35-6.12,17.9,3.66,30.71,21.17,29.99,38.58-.13,2.42-.54,4.84-4.93.81-6.38-5.74-14.13-12.12-23.45-10.83,10.53,3.22,19.41,9.3,24.68,19.97,6.9,14.46,4.77,31.34-6.18,43.59-3.53,4.04-4.49,5.52-5.58,7.09-23.38,36.41-71.59,61.06-107.09,35.54-26.93-19.36-68.46-48.1-68.46-48.1l-57.06-34.85-51.58-45.98,31.23-2.93-77.63-80.08,17.87,10.31s-21.13-103.67-17.52-133.03c30,66.87,84.78,84.2,100.2,92.15,21,10.83,71.77,17.62,70.15,13.82s-55.88-37.98-15.52-16.58c40.37,21.4,124.71,20.55,124.71,20.55,0,0-78.17-36.55-23.29-13.45,54.88,23.11,126.88,79.93,126.88,79.93,0,0-64.97-34.05-112.23-33.35-69.19,1.02-92.65,22.68-100.11,47.97-.95,3.23-1.43,6.51-1.54,9.77s-7.52,57.89,16.92,63.43c11.25,2.52,36.59-4.24,13.79-2.77-7.2.46-21.09.53-22.25-17.46-.46-7.06-1.43-13.53,3.94-20.82Z" style="fill: url(#p);"/>
    </g>
    <circle cx="510" cy="516" r="18" style="fill: #e3dcff;"/>
  </g>
  <g>
    <g>
      <path d="m501.63,388.44c10.11,3.98,23.19,19.95,28.12,66.04,5.65-20.85-8.26-49.77,8.84-52.31,16.02-2.33,28.13,5.05,35.66,16.37,1.88,2.83,3.32,5.8.43,6.73-12.07,1.87-25.09,4.5-32.28,15.89,17.44-7.59,39.17-.68,48.92,16.33,1.47,2.79,2.56,5.54,2.24,6.4-2.66,2.72-5.6,6.03-5.17,8.2,2.88,9.24,4.25,18.22,3.92,26.77-.11,2.8-.4,5.56-.86,6.76-1.35,2.56-2.53,5.1-3.6,7.6-2.52-7.08-6.01-13.15-10.71-18.53,5.06,11.63,6.41,25.59,3.4,38.15-.75,3.14-1.76,6.14-2.62,5.52-4.03-12.75-10.48-26.8-23.6-31.38,9.48,6.67,14.54,18.3,15.51,29.85,1.26,21.88-15.11,42.14-35.53,46.65-2.85.59-5.78.86-2.46-5.46,4.69-9.17,9.71-20.12,5.35-30.53-.5,13.2-4.82,25.37-15.57,34.77-14.65,12.45-34.88,15.17-52.46,6.23-5.77-2.85-7.79-3.51-9.93-4.29-49.43-15.93-92.84-64.26-74.16-113.29,14.18-37.2,34.74-94.2,34.74-94.2l22.87-76.9,37.47-73.97,13,35.32,69.01-114.68-6.47,23.89s151.12-67.51,186.28-72.35c-68.33,55.36-108.96,135.34-113.44,155.67-6.1,27.69,1.64,88.67,5.54,85.62s26.87-76.5,14.46-23.1c-12.41,53.4,14.52,150.97,14.52,150.97,0,0,18.36-101.91,8.44-31.15-9.93,70.76-53.69,171.75-53.69,171.75,0,0,19.52-85.83,4.17-140.44-22.46-79.94-54.79-100.49-86.42-101.37-4.05-.11-7.99.34-11.81,1.22s-69.46,9.09-68.37,39.13c.53,13.82,16.17,41.13,7.45,15.14-2.75-8.2-7.1-24.3,13.42-31.18,8.04-2.7,15.25-5.82,25.36-1.84Z" style="fill: url(#q);"/>
      <path d="m502.81,412.43c9.56,2.49,23.1,15.48,32.56,56.52,2.82-19.42-12.87-44,2.28-48.16,14.2-3.85,25.92,1.49,33.95,10.89,2.01,2.35,3.63,4.87,1.12,6.02-10.69,3-22.15,6.79-27.39,17.85,14.91-8.74,35.53-5.07,45.92,9.4,1.67,2.33,2.91,4.72,2.72,5.53-2.1,2.75-4.5,6.08-3.77,7.96,3.19,8.2,5.82,15.98,6.45,23.72.21,2.54.31,5.08-.04,6.19-.79,2.51-1.72,4.87-2.42,7.25-3.05-6.11-6.85-11.21-11.68-15.55,5.83,9.94,8.57,22.39,7.23,34.05-.34,2.92-.92,5.73-1.76,5.26-5.02-11.06-12.37-23.04-24.71-25.74,9.28,4.99,15.25,14.9,17.25,25.24,3.78,19.56-9,39.78-26.97,45.95-2.5.86-5.09,1.41-2.81-4.66,3.28-8.76,6.57-19.21,1.5-28.13.99,11.96-1.51,23.47-10.26,33.06-11.77,12.91-29.78,17.39-46.65,11.33-5.51-1.98-7.4-2.35-9.43-2.79-46.15-9.85-90.76-47.86-79.24-94.13,8.74-35.1,21.08-88.77,21.08-88.77l12.26-71.87,25.75-70.82,15.58,30.45,49.77-110.97-3.24,22.26s185.15-100.78,128.15-59.78-51.53,108.2-53.36,127.03c-2.49,25.65,11.13,79.82,14.32,76.64s15.91-71.94,10.53-22.41,29.54,134.62,29.54,134.62c0,0,5.47-93.94,4.22-29.02-1.25,64.92-29.73,160.8-29.73,160.8,0,0,8.26-79.56-11.53-127.16-28.97-69.68-60.38-84.7-89.01-82.04-3.66.34-7.18,1.18-10.52,2.39s-61.68,15.76-57.42,42.75c1.98,12.41,19.07,35.35,8.37,12.84-3.38-7.1-9.05-21.15,8.71-29.59,6.96-3.31,13.13-6.91,22.68-4.42Z" style="fill: url(#r);"/>
      <path d="m487,429c9,1,23,11,37,47,0-18-17.48-38.23-4.28-44.01,12.38-5.36,23.72-2.06,32.25,5.4,2.13,1.87,3.94,3.94,1.81,5.32-9.3,4.13-19.2,9.08-22.51,19.81,12.38-9.9,31.36-9.08,42.91,2.48,1.79,1.93,3.27,3.9,3.19,4.66-1.54,2.77-3.19,6.07-2.37,7.72,4.33,6.81,7.39,13.73,8.98,20.68.53,2.28.89,4.56.78,5.63-.53,2.36-.92,4.65-1.24,6.9-3.57-5.14-7.7-9.27-12.65-12.57,6.6,8.25,10.73,19.19,11.05,29.95.08,2.69-.08,5.32-.91,5.01-6.02-9.38-14.27-19.28-25.82-20.1,9.08,3.3,15.68,11.55,18.98,20.63,5.78,17.33-2.98,37.18-18.42,45.26-2.16,1.09-4.46,1.95-3.17-3.86,1.78-8.4,3.43-18.3-2.35-25.72,2.48,10.73,1.65,21.45-4.95,31.36-9.08,13.2-24.75,19.8-40.84,16.44-5.26-1.04-7.03-1.12-8.92-1.29-43.23-2.05-88.68-31.47-84.33-74.98,3.3-33.01,7.43-83.34,7.43-83.34l1.65-66.84,14.03-67.66,18.15,25.58,30.53-107.27v20.63s79.22-70.14,106.45-81.69c-42.91,59.41-30.53,115.52-29.71,132.85,1.12,23.6,20.63,70.96,23.1,67.66s4.95-67.38,6.6-21.73,44.56,118.27,44.56,118.27c0,0-7.43-85.97,0-26.9,7.43,59.08-5.78,149.85-5.78,149.85,0,0-3-73.29-27.23-113.87-35.48-59.41-65.96-68.9-91.59-62.71-3.28.79-6.36,2.02-9.23,3.55s-53.89,22.44-46.47,46.37c3.44,11,21.97,29.56,9.29,10.55-4-6-11-18,4-28,5.88-3.92,11-8,20-7Z" style="fill: url(#s);"/>
    </g>
    <circle cx="510" cy="516" r="18" style="fill: #e3dcff;"/>
  </g>
</svg>